<?xml version="1.0" encoding="iso-8859-1"?>
<!-- Generator: Adobe Illustrator 19.0.0, SVG Export Plug-In . SVG Version: 6.00 Build 0)  -->
<svg xmlns="http://www.w3.org/2000/svg" xmlns:xlink="http://www.w3.org/1999/xlink" version="1.1" id="Layer_1" x="0px" y="0px" viewBox="0 0 511.999 511.999" style="enable-background:new 0 0 511.999 511.999;" xml:space="preserve" width="512px" height="512px">
<g>
	<g>
		<path d="M457.989,64.275c6.613-1.225,11.232-6.778,11.232-13.503c0-6.726-4.619-12.278-11.232-13.503L257.46,0.134    c-0.965-0.179-1.954-0.179-2.919,0L54.01,37.268c-6.613,1.225-11.232,6.778-11.232,13.503c0,6.725,4.619,12.278,11.232,13.503    l90.716,16.8l-4.975,39.793c-0.728,5.818,0.068,11.486,2.089,16.593c-56.783,38.19-90.533,101.284-90.533,169.845    c0,112.869,91.825,204.693,204.693,204.693s204.693-91.824,204.693-204.693c0-28.526-5.763-56.075-17.102-81.951V187.59    c0-6.603-2.564-12.614-6.745-17.102c4.18-4.488,6.745-10.5,6.745-17.102c0-11.047-7.172-20.445-17.102-23.8V70.108L457.989,64.275    z M151.136,150.535c4.026,3.473,8.928,6.041,14.455,7.317l7.577,1.749c-6.526,10.807-12.258,22.773-17.125,35.65    c-14.567-2.936-29.013-6.504-43.301-10.728C123.783,171.689,136.647,160.234,151.136,150.535z M102.14,198.049    c16.036,4.952,32.268,9.119,48.654,12.492c-8.37,27.049-13.174,57.319-13.875,88.749h-69.39    C69.075,262.304,81.283,227.336,102.14,198.049z M102.253,416.528c-20.524-28.806-33.151-63.601-34.732-101.205h69.393    c0.694,31.447,5.462,61.66,13.861,88.752C134.433,407.439,118.245,411.593,102.253,416.528z M112.854,430.057    c14.243-4.206,28.644-7.76,43.165-10.689c4.167,11,8.977,21.367,14.396,30.954c8.328,14.734,17.744,27.008,27.958,36.632    C164.81,476.162,135.317,456.215,112.854,430.057z M247.983,495.381c-23.723-3.412-46.063-21.904-63.61-52.949    c-4.578-8.099-8.688-16.813-12.316-26.031c25.043-4.211,50.406-6.537,75.926-6.939V495.381z M247.983,393.429    c-27.359,0.418-54.55,2.961-81.373,7.621c-8.258-25.98-12.958-55.195-13.659-85.727h95.032V393.429z M247.983,299.289h-95.028    c0.709-30.537,5.45-59.808,13.671-85.726c26.818,4.659,54.002,7.203,81.357,7.62V299.289z M247.983,205.151    c-25.524-0.402-50.89-2.729-75.936-6.943c4.995-12.72,10.901-24.415,17.636-34.797l52.978,12.226    c1.756,0.405,3.535,0.707,5.323,0.948V205.151z M247.983,160.358c-0.574-0.108-1.149-0.213-1.718-0.344l-77.069-17.785    c-8.842-2.04-14.66-10.369-13.535-19.373l4.857-38.857l87.465,16.197V160.358z M264.016,495.381v-85.919    c25.52,0.402,50.884,2.729,75.925,6.94c-3.628,9.218-7.738,17.932-12.316,26.031C310.079,473.477,287.739,491.969,264.016,495.381    z M393.352,153.385c0,0.79,0.042,1.57,0.113,2.341c-7.317-6.637-15.108-12.733-23.31-18.256c2.023-5.11,2.821-10.782,2.093-16.604    l-4.975-39.794l43.181-7.995v56.508C400.525,132.94,393.352,142.337,393.352,153.385z M409.386,187.59    c0-5.01,4.076-9.086,9.086-9.086c5.01,0,9.086,4.076,9.086,9.086v34.739h-18.171V187.59z M394.693,179.512    c-0.723,2.12-1.173,4.363-1.301,6.692c-12.368,3.494-24.851,6.521-37.43,9.057c-4.868-12.881-10.602-24.851-17.13-35.661    l7.577-1.749c5.523-1.274,10.423-3.841,14.448-7.31C373.23,158.833,384.581,168.552,394.693,179.512z M342.803,142.229    l-77.069,17.785c-0.569,0.131-1.144,0.237-1.718,0.344v-60.164l87.465-16.197l4.857,38.859    C357.464,131.86,351.645,140.189,342.803,142.229z M269.339,175.637l52.977-12.225c6.736,10.383,12.644,22.077,17.639,34.798    c-25.054,4.213-50.43,6.544-75.938,6.946v-28.57C265.805,176.342,267.583,176.042,269.339,175.637z M345.37,213.547    c8.223,25.921,12.967,55.196,13.674,85.742h-95.028v-78.101C291.353,220.771,318.544,218.205,345.37,213.547z M359.048,315.323    c-0.701,30.532-5.401,59.748-13.66,85.728c-26.822-4.661-54.011-7.204-81.372-7.622v-78.106H359.048z M313.627,486.953    c10.214-9.624,19.63-21.898,27.958-36.632c5.419-9.587,10.229-19.954,14.396-30.954c14.52,2.928,28.921,6.485,43.163,10.69    C376.68,456.216,347.188,476.162,313.627,486.953z M409.746,416.529c-15.993-4.935-32.181-9.088-48.522-12.453    c8.399-27.093,13.168-57.307,13.861-88.753h69.393C442.897,352.926,430.27,387.722,409.746,416.529z M444.478,299.289h-69.397    c-0.701-31.431-5.504-61.699-13.873-88.745c10.787-2.22,21.507-4.776,32.145-7.68v27.481c0,4.427,3.589,8.017,8.017,8.017h30.287    C439.319,257.812,443.608,278.237,444.478,299.289z M427.557,153.385c0,5.01-4.076,9.086-9.086,9.086    c-5.01,0-9.086-4.076-9.086-9.086s4.076-9.086,9.086-9.086C423.481,144.3,427.557,148.376,427.557,153.385z M256,85.375    L69.145,50.772L256,16.169l186.855,34.602L256,85.375z" fill="#ff6600"/>
	</g>
</g>
<g>
</g>
<g>
</g>
<g>
</g>
<g>
</g>
<g>
</g>
<g>
</g>
<g>
</g>
<g>
</g>
<g>
</g>
<g>
</g>
<g>
</g>
<g>
</g>
<g>
</g>
<g>
</g>
<g>
</g>
</svg>
