<?xml version="1.0" encoding="iso-8859-1"?>
<!-- Generator: Adobe Illustrator 19.0.0, SVG Export Plug-In . SVG Version: 6.00 Build 0)  -->
<svg xmlns="http://www.w3.org/2000/svg" xmlns:xlink="http://www.w3.org/1999/xlink" version="1.1" id="Layer_1" x="0px" y="0px" viewBox="0 0 512 512" style="enable-background:new 0 0 512 512;" xml:space="preserve" width="512px" height="512px">
<g>
	<g>
		<path d="M486.881,68.409H306.759c0.002-0.179,0.014-0.355,0.014-0.534c0-27.995-22.777-50.772-50.772-50.772    s-50.772,22.777-50.772,50.772c0,0.18,0.012,0.356,0.014,0.534H25.119C11.268,68.409,0,79.677,0,93.528V401.37    c0,13.851,11.268,25.119,25.119,25.119h161.942l-6.547,52.376h-18.576c-4.427,0-8.017,3.589-8.017,8.017    c0,4.427,3.589,8.017,8.017,8.017h188.125c4.427,0,8.017-3.589,8.017-8.017c0-4.427-3.589-8.017-8.017-8.017h-18.576    l-6.547-52.376h161.942c13.851,0,25.119-11.268,25.119-25.119V93.528C512,79.677,500.732,68.409,486.881,68.409z M256,33.136    c19.155,0,34.739,15.584,34.739,34.739c0,19.155-15.584,34.739-34.739,34.739s-34.739-15.584-34.739-34.739    C221.261,48.72,236.845,33.136,256,33.136z M290.739,118.647v257.603h-35.273v-5.31c0-10.829-6.903-20.406-17.176-23.83    l-27.918-9.307c-0.528-0.176-1.024-0.408-1.5-0.669c-0.096-0.088-0.186-0.18-0.288-0.263c-0.423-0.349-0.871-0.647-1.338-0.896    c-1.911-1.688-3.087-4.125-3.087-6.792v-12.648l13.035-6.518c7.528-3.765,12.647-10.999,13.69-19.351l2.01-16.079    c9.17-12.039,14.021-26.193,14.021-40.976c0-25.046-13.99-47.094-35.065-59.774c0.565-2.496,0.86-5.044,0.86-7.624    c0-20.924-18.941-37.946-42.221-37.946s-42.221,17.022-42.221,37.946c0,2.577,0.29,5.129,0.856,7.628    c-21.073,12.68-35.061,34.726-35.061,59.77c0,14.823,4.845,28.938,14.019,40.973l2.011,16.084    c1.044,8.352,6.162,15.588,13.691,19.351l13.035,6.518v12.648c0,3.917-2.496,7.381-6.212,8.618l-27.918,9.307    c-10.273,3.424-17.176,13.001-17.176,23.83v5.31H50.238V118.647H290.739z M170.489,178.505c33.3,0,60.392,24.72,60.392,55.106    c0,1.583-0.081,3.156-0.228,4.719l-28.663-30.569c-1.485-1.583-3.549-2.497-5.72-2.532c-2.177-0.027-4.263,0.812-5.798,2.347    c-22.979,22.979-78.223,23.307-78.774,23.308c-0.518,0-1.03,0.057-1.532,0.155C111.646,201.843,138.133,178.505,170.489,178.505z     M144.301,166.213c0-12.083,11.748-21.912,26.188-21.912s26.188,9.83,26.188,21.912c0,0.186-0.021,0.369-0.027,0.555    c-8.165-2.778-16.976-4.296-26.161-4.296c-9.186,0-17.998,1.518-26.163,4.296C144.32,166.583,144.301,166.399,144.301,166.213z     M195.552,224.336l24.236,25.848l-4.811,38.496c-0.378,3.022-2.229,5.638-4.952,7l-27.823,13.912    c-7.335,3.666-16.09,3.665-23.424,0l-27.823-13.912c-2.724-1.362-4.575-3.978-4.952-7l-5.262-42.097    C137.375,245.555,173.003,241.368,195.552,224.336z M152.852,329.185v-4.676c5.573,2.56,11.602,3.857,17.637,3.857    s12.064-1.297,17.637-3.857v4.676c0,5.02,1.498,9.76,4.112,13.753c-6.115,4.92-13.741,7.659-21.749,7.659    c-7.962,0-15.622-2.746-21.747-7.662C151.355,338.943,152.852,334.203,152.852,329.185z M170.489,366.63    c12.991,0,25.294-4.928,34.648-13.679c0.056,0.019,0.109,0.044,0.165,0.062l27.918,9.307c3.717,1.239,6.212,4.702,6.212,8.62v5.31    H101.545v-5.31c0-3.918,2.497-7.381,6.212-8.62l27.918-9.307c0.056-0.018,0.108-0.043,0.164-0.062    C145.2,361.692,157.572,366.63,170.489,366.63z M196.672,478.864l6.547-52.376h105.563l6.546,52.376H196.672z M495.967,401.37    c0,5.01-4.076,9.086-9.086,9.086H25.119c-5.01,0-9.086-4.076-9.086-9.086V93.528c0-5.01,4.076-9.086,9.086-9.086h182.899    c2.367,6.835,6.151,13.007,11.005,18.171H42.221c-4.427,0-8.017,3.589-8.017,8.017v273.637c0,4.427,3.589,8.017,8.017,8.017    h427.557c4.427,0,8.017-3.589,8.017-8.017V110.63c0-4.427-3.589-8.017-8.017-8.017H292.977    c4.854-5.164,8.639-11.337,11.005-18.171h182.898c5.01,0,9.086,4.076,9.086,9.086V401.37z M424.563,212.654l-15.177-3.795v-2.482    c5.363-4.722,8.551-11.569,8.551-18.787v-42.756c0-4.427-3.589-8.017-8.017-8.017h-34.205c-13.851,0-25.119,11.268-25.119,25.119    v25.653c0,7.218,3.188,14.065,8.551,18.787v2.482l-15.178,3.795c-11.202,2.8-19.026,12.821-19.026,24.369v2.409h-18.171V118.647    h154.99v120.785h-18.171v-2.409C443.591,225.475,435.767,215.455,424.563,212.654z M371.197,195.393    c-2.859-1.664-4.566-4.581-4.566-7.802v-25.653c0-5.01,4.076-9.086,9.086-9.086h26.188v34.739c0,3.221-1.707,6.138-4.566,7.802    c-2.467,1.436-3.985,4.075-3.985,6.929v12.798c0,3.678,2.503,6.885,6.072,7.777l21.25,5.313c4.052,1.012,6.882,4.637,6.882,8.814    v2.408h-86.58v-2.409c0-4.177,2.829-7.801,6.882-8.814l21.251-5.312c3.569-0.891,6.072-4.098,6.072-7.777v-12.798    C375.182,199.466,373.664,196.828,371.197,195.393z M461.762,255.466v120.785h-18.171v-2.409c0-11.547-7.824-21.568-19.027-24.369    l-15.177-3.795v-2.482c5.363-4.722,8.551-11.569,8.551-18.787v-42.756c0-4.427-3.589-8.017-8.017-8.017h-34.205    c-13.851,0-25.119,11.268-25.119,25.119v25.653c0,7.218,3.188,14.064,8.551,18.787v2.482l-15.178,3.795    c-11.202,2.801-19.026,12.821-19.026,24.369v2.409h-18.171V255.466H461.762z M371.197,332.211    c-2.859-1.664-4.566-4.581-4.566-7.802v-25.653c0-5.01,4.076-9.086,9.086-9.086h26.188v34.739c0,3.221-1.707,6.138-4.566,7.802    c-2.467,1.435-3.985,4.075-3.985,6.929v12.798c0,3.678,2.503,6.885,6.072,7.777l21.25,5.312c4.052,1.013,6.883,4.638,6.883,8.815    v2.408h-86.58v-2.409c0-4.177,2.829-7.802,6.882-8.815l21.251-5.311c3.569-0.893,6.072-4.099,6.072-7.777V339.14    C375.182,336.285,373.664,333.647,371.197,332.211z" fill="#ff6600"/>
	</g>
</g>
<g>
	<g>
		<path d="M256,51.307c-9.136,0-16.568,7.432-16.568,16.568c0,9.136,7.432,16.568,16.568,16.568c9.136,0,16.568-7.432,16.568-16.568    C272.568,58.739,265.136,51.307,256,51.307z" fill="#ff6600"/>
	</g>
</g>
<g>
</g>
<g>
</g>
<g>
</g>
<g>
</g>
<g>
</g>
<g>
</g>
<g>
</g>
<g>
</g>
<g>
</g>
<g>
</g>
<g>
</g>
<g>
</g>
<g>
</g>
<g>
</g>
<g>
</g>
</svg>
