<?xml version="1.0" encoding="iso-8859-1"?>
<!-- Generator: Adobe Illustrator 19.0.0, SVG Export Plug-In . SVG Version: 6.00 Build 0)  -->
<svg xmlns="http://www.w3.org/2000/svg" xmlns:xlink="http://www.w3.org/1999/xlink" version="1.1" id="Layer_1" x="0px" y="0px" viewBox="0 0 512 512" style="enable-background:new 0 0 512 512;" xml:space="preserve" width="512px" height="512px">
<g>
	<g>
		<path d="M384.267,247.983c-8.834,0-16.612,4.588-21.091,11.502c-3.951-1.907-8.423-2.951-13.113-2.951s-9.163,1.044-13.113,2.951    c-4.48-6.915-12.257-11.502-21.091-11.502c-13.851,0-25.119,11.268-25.119,25.119c0,13.851,11.268,25.119,25.119,25.119    c12.813,0,23.408-9.645,24.926-22.053c2.216-2.246,5.604-3.6,9.279-3.6c3.675,0,7.063,1.355,9.279,3.6    c1.518,12.409,12.113,22.053,24.926,22.053c13.851,0,25.119-11.268,25.119-25.119    C409.386,259.252,398.118,247.983,384.267,247.983z M315.858,282.188c-5.01,0-9.086-4.076-9.086-9.086    c0-5.01,4.076-9.086,9.086-9.086c5.01,0,9.086,4.076,9.086,9.086C324.944,278.112,320.868,282.188,315.858,282.188z     M384.267,282.188c-5.01,0-9.086-4.076-9.086-9.086c0-5.01,4.076-9.086,9.086-9.086c5.01,0,9.086,4.076,9.086,9.086    C393.353,278.112,389.277,282.188,384.267,282.188z" fill="#ff6600"/>
	</g>
</g>
<g>
	<g>
		<path d="M485.634,397.631l-53.728-11.94l-10.416-15.625c-2.511-3.767-6.346-6.29-10.799-7.106    c-0.435-0.079-0.87-0.127-1.305-0.173v-20.371l4.219-3.516c7.959-6.631,13.188-15.927,14.725-26.172l11.94-79.595    c3.304-22.023-3.137-44.334-17.67-61.209c-12.225-14.196-29.109-23.272-47.418-25.805V59.324c0-18.566-15.105-33.67-33.67-33.67    H33.669C15.105,25.653,0,40.758,0,59.324v213.779c0,18.566,15.105,33.67,33.67,33.67h237.231l0.894,5.955    c1.537,10.245,6.766,19.54,14.725,26.172l4.219,3.516v20.371c-0.435,0.045-0.87,0.093-1.305,0.173    c-4.453,0.816-8.287,3.34-10.799,7.106l-10.416,15.625l-53.728,11.94c-15.523,3.451-26.365,16.968-26.365,32.87v30.729    c0,13.851,11.268,25.119,25.119,25.119h273.637c13.851,0,25.119-11.268,25.119-25.119v-30.729    C512,414.597,501.158,401.081,485.634,397.631z M213.244,470.313c-5.01,0-9.086-4.076-9.086-9.086v-30.729    c0-8.33,5.679-15.409,13.81-17.217l48.878-10.862l13.578,67.893H213.244z M238.898,68.409H136.284    c-23.281,0-42.221,18.941-42.221,42.221v68.409c0,23.281,18.941,42.221,42.221,42.221h102.614c7.37,0,14.303-1.904,20.34-5.237    c-0.427,5.657-0.24,11.39,0.618,17.109l2.228,14.85H125.879c-3.354-9.93-12.752-17.102-23.8-17.102s-20.446,7.172-23.8,17.102    H42.221c-4.427,0-8.017,3.589-8.017,8.017s3.589,8.017,8.017,8.017h36.058c3.354,9.93,12.752,17.102,23.8,17.102    s20.446-7.172,23.8-17.102h138.609l4.008,26.722H33.67c-9.725,0-17.637-7.912-17.637-17.637V59.324    c0-9.725,7.912-17.637,17.637-17.637h307.841c9.725,0,17.637,7.912,17.637,17.637v86.046h-23.712    c-20.504,0-40.008,8.221-54.317,22.692V110.63C281.119,87.35,262.178,68.409,238.898,68.409z M265.086,110.63v68.409    c0,14.44-11.748,26.188-26.188,26.188H136.284c-14.44,0-26.188-11.748-26.188-26.188V110.63c0-14.44,11.748-26.188,26.188-26.188    h102.614C253.337,84.443,265.086,96.191,265.086,110.63z M111.164,256.015c-0.009,5.002-4.08,9.071-9.085,9.071    c-5.01,0-9.086-4.076-9.086-9.086s4.076-9.086,9.086-9.086c5.005,0,9.076,4.067,9.085,9.071c0,0.005-0.001,0.011-0.001,0.015    S111.164,256.011,111.164,256.015z M289.673,182.386c11.485-13.336,28.164-20.983,45.763-20.983h29.253    c17.598,0,34.277,7.648,45.763,20.983c2.981,3.462,5.522,7.218,7.618,11.181c-16.365,14.56-38.83,22.72-51.439,26.432v-6.754    c0-2.577-1.239-4.997-3.33-6.503c-2.091-1.506-4.778-1.918-7.222-1.102c-21.265,7.088-69.065,8.005-80.488,8.122    C277.13,202.277,281.946,191.359,289.673,182.386z M287.651,310.348l-11.94-79.594c-0.048-0.319-0.075-0.637-0.117-0.956    c10.302-0.089,49.318-0.782,75.002-6.178v6.725c0,2.402,1.076,4.676,2.934,6.2c1.446,1.185,3.245,1.817,5.083,1.817    c0.524,0,1.05-0.051,1.572-0.156c1.652-0.33,36.873-7.578,63.642-28.575c1.413,6.874,1.651,14.014,0.586,21.121l-11.94,79.595    c-0.953,6.355-4.196,12.12-9.133,16.233l-34.174,28.477c-3.163,2.636-7.173,4.087-11.291,4.087h-15.629    c-4.117,0-8.128-1.452-11.291-4.087l-34.174-28.477C291.847,322.468,288.604,316.702,287.651,310.348z M291.976,378.96    c0.031-0.046,0.126-0.188,0.348-0.229c0.221-0.041,0.36,0.059,0.406,0.091l44.972,32.122l-20.892,20.892    c-0.046,0.045-0.161,0.153-0.402,0.156c-0.235-0.011-0.345-0.142-0.386-0.192l-32.929-39.515L291.976,378.96z M342.046,470.313    h-45.269l-9.622-48.109l16.55,19.86c2.973,3.567,7.338,5.735,11.977,5.945c0.249,0.012,0.497,0.017,0.746,0.017    c4.377,0,8.613-1.745,11.72-4.853l13.898-13.9V470.313z M306.772,369.147v-13.37l13.92,11.601    c6.038,5.032,13.694,7.804,21.555,7.804h15.629c7.861,0,15.516-2.772,21.555-7.804l13.92-11.601v13.37l-43.29,30.922    L306.772,369.147z M403.348,470.313h-45.269v-41.039l13.898,13.898c3.107,3.107,7.343,4.853,11.72,4.853    c0.248,0,0.497-0.005,0.746-0.017c4.639-0.211,9.004-2.377,11.977-5.945l16.55-19.86L403.348,470.313z M384.103,431.8    c-0.042,0.049-0.151,0.181-0.386,0.192c-0.238-0.004-0.357-0.111-0.402-0.156l-20.892-20.892l44.972-32.122    c0.045-0.032,0.183-0.131,0.406-0.091c0.222,0.041,0.317,0.183,0.348,0.229l8.883,13.325L384.103,431.8z M495.967,461.228    c0,5.01-4.076,9.086-9.086,9.086H419.7l13.578-67.893l48.878,10.862c8.131,1.807,13.81,8.887,13.81,17.217V461.228z" fill="#ff6600"/>
	</g>
</g>
<g>
	<g>
		<path d="M218.635,130.016l-40.737-20.369c-5.173-2.587-11.2-2.316-16.12,0.725s-7.857,8.31-7.857,14.093v40.737    c0,5.784,2.937,11.052,7.857,14.093c2.678,1.655,5.683,2.49,8.7,2.49c2.527,0,5.062-0.586,7.419-1.764l40.737-20.369    c5.649-2.825,9.158-8.503,9.158-14.819S224.284,132.841,218.635,130.016z M211.465,145.313l-40.737,20.369    c-0.099,0.05-0.267,0.134-0.519-0.023c-0.254-0.157-0.254-0.343-0.254-0.454v-40.737c0-0.111,0-0.298,0.253-0.455    c0.11-0.067,0.203-0.091,0.282-0.091c0.104,0,0.182,0.04,0.238,0.067l40.737,20.369c0.131,0.066,0.295,0.148,0.295,0.478    C211.76,145.165,211.596,145.248,211.465,145.313z" fill="#ff6600"/>
	</g>
</g>
<g>
</g>
<g>
</g>
<g>
</g>
<g>
</g>
<g>
</g>
<g>
</g>
<g>
</g>
<g>
</g>
<g>
</g>
<g>
</g>
<g>
</g>
<g>
</g>
<g>
</g>
<g>
</g>
<g>
</g>
</svg>
